<svg xmlns="http://www.w3.org/2000/svg" width="12" height="12" fill="none" viewBox="0 0 12 12">
  <path fill="#CED0D6" d="M2.37 9.967v-9.4h1.26v9.4H2.37Zm6.15.01c-.373 0-.703-.074-.99-.22a1.512 1.512 0 0 1-.64-.62c-.147-.26-.21-.574-.19-.94l.1-1.52c.02-.274-.037-.48-.17-.62-.127-.14-.343-.21-.65-.21H4.79v-1.15h1.19c.307 0 .523-.07.65-.21.133-.14.19-.344.17-.61l-.1-1.57c-.02-.36.043-.67.19-.93.147-.26.36-.46.64-.6.287-.14.617-.21.99-.21h.69v1.15H8.7c-.24 0-.43.056-.57.17-.133.113-.193.293-.18.54l.1 1.56c.027.393-.09.71-.35.95s-.623.36-1.09.36v-.07c.46 0 .82.123 1.08.37.267.24.387.56.36.96l-.1 1.56c-.007.22.057.393.19.52.14.12.327.18.56.18h.51v1.16h-.69Z"/>
</svg>
