<svg xmlns="http://www.w3.org/2000/svg" width="16" height="16" fill="none" viewBox="0 0 16 16">
  <path fill="#CED0D6" d="M3.16 13.289V.756h1.68v12.533H3.16Zm8.2.013c-.498 0-.938-.098-1.32-.293a2.016 2.016 0 0 1-.853-.827c-.196-.346-.28-.764-.254-1.253l.134-2.027c.026-.364-.05-.64-.227-.826-.169-.187-.458-.28-.867-.28H6.387V6.262h1.586c.41 0 .698-.093.867-.28.178-.186.253-.458.227-.813l-.134-2.093c-.026-.48.058-.894.254-1.24a1.95 1.95 0 0 1 .853-.8c.382-.187.822-.28 1.32-.28h.92v1.533h-.68c-.32 0-.573.075-.76.227-.178.15-.258.39-.24.72l.133 2.08c.036.524-.12.946-.466 1.266-.347.32-.831.48-1.454.48V6.97c.614 0 1.094.164 1.44.493.356.32.516.747.48 1.28l-.133 2.08c-.009.294.076.525.253.694.187.16.436.24.747.24h.68v1.546h-.92Z"/>
</svg>
