<svg xmlns="http://www.w3.org/2000/svg" width="13" height="13" fill="none" viewBox="0 0 13 13">
  <path fill="#CED0D6" d="M2.567 10.797V.614h1.365v10.183H2.567Zm6.663.011c-.404 0-.762-.08-1.072-.238a1.639 1.639 0 0 1-.694-.672c-.159-.282-.227-.621-.206-1.018l.109-1.647c.021-.296-.04-.52-.184-.672-.138-.151-.372-.227-.705-.227H5.19V5.088h1.29c.332 0 .566-.076.704-.227.144-.152.205-.372.184-.661l-.109-1.701c-.021-.39.047-.726.206-1.008a1.6 1.6 0 0 1 .694-.65c.31-.151.668-.227 1.072-.227h.747V1.86h-.552c-.26 0-.466.061-.618.184-.144.123-.209.318-.194.585l.108 1.69c.029.426-.098.769-.38 1.029-.281.26-.675.39-1.18.39v-.076c.498 0 .888.134 1.17.401.289.26.419.607.39 1.04l-.108 1.69c-.008.238.06.426.205.563.152.13.354.195.607.195h.552v1.257H9.23Z"/>
</svg>
